<svg xmlns="http://www.w3.org/2000/svg" width="1600" height="1000" viewBox="0 0 1600 1000">
  <defs><radialGradient id="bg"><stop stop-color="#171b14"/><stop offset=".4" stop-color="#071015"/><stop offset="1" stop-color="#010406"/></radialGradient><linearGradient id="panel" x2="1" y2="1"><stop stop-color="#0a171d"/><stop offset="1" stop-color="#03090d"/></linearGradient><pattern id="grid" width="50" height="50" patternUnits="userSpaceOnUse"><path d="M50 0H0V50" fill="none" stroke="#54d7ea" stroke-opacity=".05"/></pattern><filter id="glow"><feGaussianBlur stdDeviation="5" result="b"/><feMerge><feMergeNode in="b"/><feMergeNode in="SourceGraphic"/></feMerge></filter></defs>
  <rect width="1600" height="1000" fill="url(#bg)"/><rect width="1600" height="1000" fill="url(#grid)"/><path d="M0 64H1600" stroke="#ffb21f" stroke-opacity=".35"/>
  <g font-family="Segoe UI,Arial"><circle cx="34" cy="32" r="17" fill="none" stroke="#ffb21f"/><circle cx="34" cy="32" r="8" fill="#ffb21f" filter="url(#glow)"/><text x="63" y="29" fill="#fff0ca" font-size="17" font-weight="700" letter-spacing="5">JARVIS</text><text x="63" y="45" fill="#526c75" font-size="7" font-weight="700" letter-spacing="2">PRIVATE LOCAL ASSISTANT</text><circle cx="790" cy="31" r="4" fill="#ffb21f"/><text x="804" y="35" fill="#8da0a4" font-size="8" font-weight="700" letter-spacing="2">SEARCHING LOCAL FILES</text></g>
  <g stroke="#ffb21f" stroke-opacity=".28" filter="url(#glow)"><path d="M800 420L130 120M800 420L1480 130M800 420L122 760M800 420L1470 790M800 420L300 460M800 420L1290 450"/></g>
  <g fill="#ffc451" filter="url(#glow)"><circle cx="130" cy="120" r="3"/><circle cx="1480" cy="130" r="3"/><circle cx="122" cy="760" r="3"/><circle cx="1470" cy="790" r="3"/><circle cx="300" cy="460" r="3"/><circle cx="1290" cy="450" r="3"/></g>
  <rect x="170" y="110" width="1260" height="690" fill="url(#panel)" stroke="#ffb21f" stroke-opacity=".42"/><path d="M170 110h120" stroke="#ffb21f" stroke-width="2"/>
  <g font-family="Segoe UI,Arial"><text x="195" y="137" fill="#526c75" font-size="7" font-weight="700" letter-spacing="2">02 // LIVE SEARCH</text><text x="195" y="161" fill="#d8e7e9" font-size="14" font-weight="700" letter-spacing="2">JARVIS FILE EXPLORER</text><text x="1385" y="151" fill="#607a83" font-size="20">−  ×</text>
    <rect x="170" y="180" width="1260" height="50" fill="#03090d" stroke="#6b929e" stroke-opacity=".17"/><text x="198" y="210" fill="#ffb21f" font-size="15">↑</text><text x="235" y="209" fill="#718991" font-size="8" font-weight="700">C:\USERS\ADAM\DOCUMENTS\ANVIL</text><text x="1400" y="209" fill="#ffb21f" font-size="7" font-weight="700" text-anchor="end">REFORM CORE</text>
    <rect x="170" y="230" width="1260" height="100" fill="#ffb21f" fill-opacity=".035"/><g stroke="#ffb21f" filter="url(#glow)"><path d="M200 280h92M200 280l72-27M200 280l72 27M200 280l53-47M200 280l53 47"/></g><text x="320" y="272" fill="#ffb21f" font-size="8" font-weight="700" letter-spacing="1.5">POSSIBLE MATCH DETECTED</text><text x="320" y="293" fill="#8fa7ad" font-size="9">C:\Users\Adam\Documents\Anvil\Proposals</text><text x="1395" y="283" fill="#607a83" font-size="8" font-weight="700" text-anchor="end">186 FOLDERS · 7 MATCHES</text>
    <g fill="#49636c" font-size="7" font-weight="700"><text x="205" y="356">NAME</text><text x="1180" y="356">MODIFIED</text><text x="1345" y="356">SIZE</text></g>
    <rect x="190" y="374" width="1220" height="70" fill="#ffb21f" fill-opacity=".075" stroke="#ffb21f" stroke-opacity=".22"/><text x="210" y="408" fill="#ffb21f" font-size="17">◇</text><text x="240" y="401" fill="#d1e0e3" font-size="11" font-weight="700">Anvil_Client_Proposal_FINAL.pdf</text><text x="240" y="419" fill="#4b6670" font-size="7">C:\Users\Adam\Documents\Anvil\Proposals\Anvil_Client_Proposal_FINAL.pdf</text><text x="1180" y="407" fill="#718991" font-size="8">JUL 12, 2026</text><text x="1345" y="407" fill="#718991" font-size="8">2.4 MB</text>
    <g font-size="10" fill="#a5bbc1"><text x="210" y="480">◇</text><text x="240" y="480">Anvil Proposal Notes.docx</text><text x="1180" y="480" fill="#607a83" font-size="8">JUL 10, 2026</text><text x="1345" y="480" fill="#607a83" font-size="8">86 KB</text><path d="M195 505h1210" stroke="#6b929e" stroke-opacity=".13"/><text x="210" y="542">◇</text><text x="240" y="542">Anvil Service Agreement.pdf</text><text x="1180" y="542" fill="#607a83" font-size="8">JUL 8, 2026</text><text x="1345" y="542" fill="#607a83" font-size="8">1.1 MB</text><path d="M195 565h1210" stroke="#6b929e" stroke-opacity=".13"/></g>
    <text x="800" y="735" fill="#ffcf66" font-size="9" font-weight="700" text-anchor="middle" letter-spacing="3">MATCH CONFIRMED · OPENING FILE</text>
  </g>
  <g><rect x="350" y="842" width="900" height="125" fill="#030a0e" stroke="#6b929e" stroke-opacity=".22"/><path d="M350 842h100" stroke="#ffb21f"/><text x="372" y="870" fill="#ffb21f" font-family="Segoe UI" font-size="8" font-weight="700">JARVIS</text><text x="445" y="870" fill="#c3d4d8" font-family="Segoe UI" font-size="11">Found it. Opening Anvil_Client_Proposal_FINAL.pdf.</text><text x="800" y="925" fill="#ffb21f" font-family="Segoe UI" font-size="8" font-weight="700" text-anchor="middle" letter-spacing="2">CORE WILL REFORM AFTER THE FILE OPENS</text></g>
</svg>
